<svg id="Layer_1" data-name="Layer 1" xmlns="http://www.w3.org/2000/svg" viewBox="0 0 800 800"><defs><style>.cls-1{fill:#333;}</style></defs><path class="cls-1" d="M362.73,558.64c0-54-33.51-74.48-80.07-46.56l-210.42,121L35,568l208.57-121c46.55-27.93,46.55-65.17,0-93.11L35,232.77l37.25-65.18,210.42,121c46.56,27.93,80.07,7.45,80.07-46.56V0h74.49V242.07c0,54,33.51,74.49,80.07,46.56l210.42-121L765,232.77l-210.42,121C508,381.74,508,419,554.53,446.91L765,568l-37.24,65.17-210.42-121c-46.56-27.92-80.07-7.44-80.07,46.56V800.72H362.73Z"/></svg>